<svg height="300px" width="300px" fill="#000000" xmlns="http://www.w3.org/2000/svg" xmlns:xlink="http://www.w3.org/1999/xlink" version="1.1" x="0px" y="0px" viewBox="0 0 100 100" style="enable-background:new 0 0 100 100;" xml:space="preserve"><style type="text/css">
	.st0{fill:#000000;}
	.st1{fill:#000000;}
	.st2{fill:#000000;}
	.st3{fill:#000000;}
	.st4{fill:#000000;}
	.st5{fill:#000000;}
	.st6{fill:#000000;}
	.st7{fill:#000000;}
	.st8{fill:#000000;}
	.st9{fill:#000000;}
	.st10{fill:#000000;}
	.st11{fill:#000000;}
	.st12{fill:#000000;}
	.st13{fill:#000000;}
	.st14{fill:#000000;}
	.st15{fill:#000000;}
	.st16{fill:#000000;}
	.st17{fill:#000000;}
	.st18{fill:none;stroke:#000000;stroke-miterlimit:10;}
	.st19{fill:#000000;}
</style><path d="M70.9,48.4c-3.4,0-15.7,2.8-15.7,2.8c-11.4,3.7-13.5,7.2-13.5,7.2c0-3.7-3.1-6.5-4.1-7c-1.1-0.4-3.6-2.2-3.6-2.2  c-9.3-11.8,1.6-23.8,1.6-23.8c10.4-11.3,22.1-0.5,22.1-0.5s10.4,7.9,11.8,8.9s3.6,1.9,3.6,1.9s0.6,0.6,0.4,0.7  c-0.2,0.1-2-0.9-2.8-1.2c-0.8-0.3-3.1-1.9-5.1-3.2c-2-1.3-5.4-3.1-5.4-3.1c-5.1,1.6-5,6.7-5,6.7c5.7-0.3,4.4-4.4,5.6-5.2  c1.2-0.8,7.8,4.4,9.1,5.5c1.4,1.1,3.8,1.2,3.7,1.4s1.5,2.3,3.7,3.8c2.1,1.5,7.1,6.8,7.1,6.8C84.6,48.1,74.3,48.5,70.9,48.4z   M33.9,23.7c-1.1,0.2-4,5.3-3.4,4.8c0.6-0.5,1.8,1.1,1.8,1.1c0.5-2,3-4.6,3-4.6C33.9,25.2,33.9,23.7,33.9,23.7z M46.9,16.3  c-28.5,3.7-20,30.6-20,30.6l1.4-0.2c-6.3-28.2,18.6-28.9,18.6-28.9V16.3z M45.2,2C16.8,18.1,16.7,29.4,15.6,35.5s2.3,14.1,2.9,15.4  c0.7,1.5,3.8,5.4,3.8,5.4s1.5,1.7,5.8,4.2c4.2,2.5,2.1,13.8,2.2,15.1c0.1,1.3,3.6,5.2,3.6,5.2c-1-1.4-0.7-5.3-0.7-5.3  c2.2-7.5,2.4-12.5,2.2-14.4c-0.2-1.9-2.1-4.2-5-6.3s-4.3-7.4-4.3-7.4c-7.6-29.3,19.9-32,19.9-32C42,11.5,45.2,2,45.2,2z M56.1,52.1  c-8,2.3-12.3,6-12.3,6c1.5,6.1-1.5,8.1-1.5,8.1c-1.9,1.3-1.4,5.6,0.1,7.1c1.5,1.5,1.3,3,1.3,3c-2.9,2.9,0,6.4-0.4,6.7  c-0.4,0.4-0.2,2.1-0.1,2.2c0.1,0.1,0.5-0.2,0.5-0.2s-0.9,1.4-2,2.9c-1,1.5,1,2.9,1,2.9L42.1,93c5.2,3.5,25.1,4.6,25.1,4.6  c0.7-1.8-2.1-7.5-3.1-8.6c-1-1-0.3-3.5-0.3-3.5s3.9-10.8,4.1-10.9c0.2-0.1,5.7,0.2,5.7,0.2s0.5,0.1,1.5-0.6s0.3-3.7,0.3-3.7  c1.3-1,0.4-2.2,0.4-2.2c1.3-1.1,0.4-1.8,0.4-1.8l-0.1-1c0,0,0-0.5,1.1-0.8s1.3-1.8,1.1-2c-0.2-0.2-3.8-6.5-3.9-6.8  c-0.1-0.3-0.1-0.6,0-1.9c0.1-1.4-1.6-5-1.6-5S64.2,49.8,56.1,52.1z"/></svg>